<svg width="111" height="36" viewBox="0 0 111 36" fill="Black" xmlns="http://www.w3.org/2000/svg">
<path d="M30.9105 9.16986C31.232 9.16986 31.5024 9.27678 31.7216 9.49063C31.9409 9.70447 32.0505 9.96108 32.0505 10.2605V19.306C32.0505 20.9027 31.4659 22.2642 30.2966 23.3904C29.1419 24.5167 27.7534 25.0798 26.131 25.0798C24.4941 25.0798 23.0982 24.5167 21.9436 23.3904C20.7743 22.2642 20.1897 20.9027 20.1897 19.306C20.1897 17.7093 20.7743 16.3479 21.9436 15.2216C23.0982 14.0954 24.4941 13.5323 26.131 13.5323C26.9934 13.5323 27.8192 13.7105 28.6084 14.0669C28.9008 14.1952 29.0981 14.4019 29.2004 14.687C29.3027 14.9721 29.2881 15.2501 29.1565 15.521C29.025 15.7919 28.8131 15.9843 28.5207 16.0984C28.2284 16.1982 27.9434 16.1839 27.6657 16.0556C27.1688 15.8418 26.6572 15.7348 26.131 15.7348C25.1079 15.7348 24.2383 16.0841 23.5221 16.7827C22.8059 17.4812 22.4478 18.3223 22.4478 19.306C22.4478 20.2897 22.8059 21.1308 23.5221 21.8294C24.2383 22.5279 25.1079 22.8772 26.131 22.8772C27.1395 22.8772 28.0019 22.5279 28.7181 21.8294C29.4342 21.1308 29.7923 20.2897 29.7923 19.306V10.2605C29.7923 9.96108 29.902 9.70447 30.1212 9.49063C30.3404 9.27678 30.6035 9.16986 30.9105 9.16986Z" fill="black"/>
<path d="M39.8992 13.6178C40.2062 13.6748 40.4473 13.8245 40.6227 14.0668C40.7981 14.3234 40.8566 14.6014 40.7981 14.9008C40.7397 15.2002 40.5862 15.4354 40.3377 15.6065C40.0746 15.7776 39.7896 15.8346 39.4827 15.7776C39.3073 15.7491 39.1319 15.7348 38.9565 15.7348C38.0503 15.7348 37.283 16.0841 36.6545 16.7826C36.0114 17.4812 35.6825 18.3223 35.6679 19.306V23.9891C35.6679 24.2885 35.5656 24.5451 35.361 24.759C35.1271 24.9728 34.8567 25.0797 34.5498 25.0797C34.2429 25.0797 33.9798 24.9728 33.7606 24.759C33.5413 24.5451 33.4317 24.2885 33.4317 23.9891V14.6228C33.4317 14.3234 33.5413 14.0668 33.7606 13.853C33.9798 13.6391 34.2429 13.5322 34.5498 13.5322C34.8567 13.5322 35.1271 13.6391 35.361 13.853C35.5656 14.0668 35.6679 14.3234 35.6679 14.6228V14.6442C36.6472 13.9029 37.7434 13.5322 38.9565 13.5322C39.2781 13.5322 39.5923 13.5607 39.8992 13.6178Z" fill="black"/>
<path d="M52.0889 17.2317V17.2531C52.2058 17.524 52.1985 17.802 52.067 18.0871C51.95 18.3722 51.7454 18.5647 51.4531 18.6645L45.1609 21.145C45.0148 21.1878 44.8759 21.2092 44.7444 21.2092C44.2328 21.2092 43.882 20.9811 43.692 20.5249C43.5751 20.254 43.5751 19.976 43.692 19.6909C43.8236 19.4058 44.0282 19.2062 44.3059 19.0921L49.4361 17.1034C48.6907 16.191 47.7333 15.7348 46.5641 15.7348C45.541 15.7348 44.6713 16.0841 43.9551 16.7826C43.239 17.4812 42.8809 18.3223 42.8809 19.306C42.8809 20.2897 43.239 21.1308 43.9551 21.8293C44.6713 22.5279 45.541 22.8772 46.5641 22.8772C47.748 22.8772 48.7053 22.421 49.4361 21.5086C49.6407 21.2662 49.8965 21.1237 50.2034 21.0809C50.5104 21.0524 50.7881 21.1308 51.0365 21.3161C51.2704 21.5014 51.4093 21.7438 51.4531 22.0432C51.4969 22.3426 51.4239 22.6134 51.2339 22.8558C50.0354 24.3384 48.4788 25.0797 46.5641 25.0797C44.9271 25.0797 43.524 24.5166 42.3547 23.3904C41.2 22.2641 40.6227 20.9027 40.6227 19.306C40.6227 17.7093 41.2 16.3478 42.3547 15.2216C43.524 14.0953 44.9271 13.5322 46.5641 13.5322C47.7626 13.5322 48.8734 13.8672 49.8965 14.5373C50.9196 15.2216 51.6504 16.1197 52.0889 17.2317Z" fill="white"/>
<path d="M58.6222 13.5322C60.1423 13.5322 61.4431 14.0953 62.5247 15.2216C63.6062 16.3478 64.147 17.7093 64.147 19.306V23.9891C64.147 24.2885 64.0374 24.5451 63.8182 24.759C63.5989 24.9728 63.3358 25.0797 63.0289 25.0797C62.722 25.0797 62.4516 24.9728 62.2177 24.759C61.9985 24.5451 61.8889 24.2885 61.8889 23.9891V19.306C61.8889 18.3223 61.5673 17.4812 60.9242 16.7826C60.2957 16.0841 59.5284 15.7348 58.6222 15.7348C57.7306 15.7348 56.9633 16.077 56.3202 16.7613C55.6771 17.4741 55.3556 18.3223 55.3556 19.306V23.9891C55.3556 24.2885 55.2459 24.5451 55.0267 24.759C54.8075 24.9728 54.5371 25.0797 54.2155 25.0797C53.9086 25.0797 53.6455 24.9728 53.4263 24.759C53.207 24.5451 53.0974 24.2885 53.0974 23.9891V14.6228C53.0974 14.3234 53.207 14.0668 53.4263 13.853C53.6455 13.6391 53.9086 13.5322 54.2155 13.5322C54.5371 13.5322 54.8075 13.6391 55.0267 13.853C55.2459 14.0668 55.3556 14.3234 55.3556 14.6228V14.6442C56.3202 13.9029 57.4091 13.5322 58.6222 13.5322Z" fill="black"/>
<path d="M70.9215 13.5322C72.5439 13.5322 73.9397 14.0953 75.1089 15.2216C76.2636 16.3478 76.8409 17.7093 76.8409 19.306V23.9891C76.8409 24.2885 76.7313 24.5451 76.5121 24.759C76.2928 24.9728 76.0297 25.0797 75.7228 25.0797C75.4013 25.0797 75.1309 24.9728 74.9116 24.759C74.6924 24.5451 74.5828 24.2885 74.5828 23.9891V19.306C74.5828 18.3223 74.2247 17.4812 73.5085 16.7826C72.7923 16.0841 71.93 15.7348 70.9215 15.7348C69.8984 15.7348 69.0287 16.0841 68.3125 16.7826C67.5964 17.4812 67.2383 18.3223 67.2383 19.306C67.2383 20.2897 67.5964 21.1308 68.3125 21.8293C69.0287 22.5279 69.8984 22.8772 70.9215 22.8772C71.3746 22.8772 71.8423 22.7916 72.3246 22.6206C72.7046 22.5065 72.9969 22.478 73.2016 22.535C73.4939 22.6206 73.7131 22.7988 73.8593 23.0696C74.0054 23.3405 74.0347 23.6185 73.947 23.9036C73.8593 24.1887 73.6766 24.4097 73.3989 24.5665C72.7412 24.9087 71.9154 25.0797 70.9215 25.0797C69.2845 25.0797 67.8887 24.5166 66.734 23.3904C65.5648 22.2641 64.9801 20.9027 64.9801 19.306C64.9801 17.7093 65.5648 16.3478 66.734 15.2216C67.8887 14.0953 69.2845 13.5322 70.9215 13.5322Z" fill="black"/>
<path d="M79.691 9.16986C79.9979 9.16986 80.2683 9.27678 80.5022 9.49063C80.7068 9.70447 80.8091 9.96108 80.8091 10.2605V23.9892C80.8091 24.2886 80.7068 24.5452 80.5022 24.759C80.2683 24.9728 79.9979 25.0798 79.691 25.0798C79.3841 25.0798 79.121 24.9728 78.9017 24.759C78.6825 24.5452 78.5729 24.2886 78.5729 23.9892V10.2605C78.5729 9.96108 78.6825 9.70447 78.9017 9.49063C79.121 9.27678 79.3841 9.16986 79.691 9.16986Z" fill="black"/>
<path d="M84.01 13.5322C84.3169 13.5322 84.58 13.6391 84.7993 13.853C85.0185 14.0668 85.1281 14.3234 85.1281 14.6228V23.9891C85.1281 24.2885 85.0185 24.5451 84.7993 24.759C84.58 24.9728 84.3169 25.0797 84.01 25.0797C83.6884 25.0797 83.418 24.9728 83.1988 24.759C82.9795 24.5451 82.8699 24.2885 82.8699 23.9891V14.6228C82.8699 14.3234 82.9795 14.0668 83.1988 13.853C83.418 13.6391 83.6884 13.5322 84.01 13.5322Z" fill="black"/>
<path d="M92.3411 13.5322C93.8758 13.5322 95.1766 14.0953 96.2436 15.2216C97.3398 16.3478 97.8879 17.7093 97.8879 19.306V23.9891C97.8879 24.2885 97.7709 24.5451 97.5371 24.759C97.3324 24.9728 97.0694 25.0797 96.7478 25.0797C96.4409 25.0797 96.1778 24.9728 95.9586 24.759C95.7247 24.5451 95.6078 24.2885 95.6078 23.9891V19.306C95.6078 18.3223 95.2935 17.4812 94.6651 16.7826C94.022 16.0841 93.2473 15.7348 92.3411 15.7348C91.4496 15.7348 90.6822 16.077 90.0391 16.7613C89.396 17.4741 89.0745 18.3223 89.0745 19.306V23.9891C89.0745 24.2885 88.9649 24.5451 88.7456 24.759C88.5264 24.9728 88.256 25.0797 87.9344 25.0797C87.6275 25.0797 87.3644 24.9728 87.1452 24.759C86.9259 24.5451 86.8163 24.2885 86.8163 23.9891V14.6228C86.8163 14.3234 86.9259 14.0668 87.1452 13.853C87.3644 13.6391 87.6275 13.5322 87.9344 13.5322C88.256 13.5322 88.5264 13.6391 88.7456 13.853C88.9649 14.0668 89.0745 14.3234 89.0745 14.6228V14.6442C90.0391 13.9029 91.128 13.5322 92.3411 13.5322Z" fill="black"/>
<path d="M110.165 17.2317V17.2531C110.282 17.524 110.282 17.802 110.165 18.0871C110.048 18.3722 109.844 18.5647 109.551 18.6645L103.237 21.145C103.106 21.1878 102.967 21.2092 102.821 21.2092C102.309 21.2092 101.958 20.9811 101.768 20.5249C101.651 20.254 101.659 19.976 101.79 19.6909C101.907 19.4058 102.112 19.2062 102.404 19.0921L107.512 17.1034C106.767 16.191 105.81 15.7348 104.64 15.7348C103.617 15.7348 102.755 16.0841 102.053 16.7826C101.323 17.4812 100.957 18.3223 100.957 19.306C100.957 20.2897 101.323 21.1308 102.053 21.8293C102.755 22.5279 103.617 22.8772 104.64 22.8772C105.824 22.8772 106.789 22.421 107.534 21.5086C107.724 21.2662 107.973 21.1237 108.28 21.0809C108.587 21.0524 108.864 21.1308 109.113 21.3161C109.361 21.5014 109.507 21.7438 109.551 22.0432C109.581 22.3426 109.5 22.6134 109.31 22.8558C108.126 24.3384 106.57 25.0797 104.64 25.0797C103.003 25.0797 101.608 24.5166 100.453 23.3904C99.2837 22.2641 98.699 20.9027 98.699 19.306C98.699 17.7093 99.2837 16.3478 100.453 15.2216C101.608 14.0953 103.003 13.5322 104.64 13.5322C105.854 13.5322 106.972 13.8672 107.995 14.5373C109.003 15.2216 109.727 16.1197 110.165 17.2317Z" fill="black"/>
<path d="M7.67113 31.0888C7.12304 31.0888 6.66263 30.7894 6.48724 30.2975C6.3557 29.934 6.39954 29.5491 6.61878 29.2283C6.83802 28.9076 7.21073 28.7151 7.64921 28.6937C7.72229 28.6795 7.80267 28.6723 7.89037 28.6723C7.96345 28.6723 8.03653 28.6723 8.10961 28.6723C8.1973 28.6866 8.28499 28.6937 8.37269 28.6937C8.72347 28.6937 9.00848 28.4157 9.00848 28.0736V27.9025C9.00848 27.817 9.00848 27.7314 9.00848 27.6459C8.99386 24.4953 8.98656 22.9128 8.98656 22.8986L11.464 22.9199C11.464 22.9342 11.464 22.9556 11.464 22.9841C11.464 24.1674 11.4713 25.3506 11.4859 26.5339V27.5817C11.4859 27.6388 11.4859 27.7813 11.4859 28.0094C11.4859 28.3516 11.7709 28.6296 12.0997 28.6296H12.4944C12.5821 28.6296 12.6625 28.6296 12.7355 28.6296H12.7575C13.1302 28.6296 13.3932 28.7151 13.6344 28.9076C14.029 29.2283 14.1825 29.7415 14.029 30.212C13.8756 30.6825 13.4371 31.0032 12.9548 31.0246C12.4505 31.046 11.9243 31.046 11.4201 31.0674H10.9597C9.88544 31.0674 8.76732 31.0888 7.67113 31.0888Z" fill="black"/>
<path d="M14.6429 15.136C14.2702 15.136 13.9633 14.8794 13.8098 14.4731C13.766 14.3021 13.7002 14.131 13.7221 13.9599C13.7879 13.5108 13.8537 13.0832 13.9194 12.6555C13.9341 12.4987 13.956 12.3418 13.9852 12.185C14.0071 12.0353 14.1387 11.9284 14.2921 11.9284C14.3944 11.9284 14.4456 11.9284 14.4456 11.9284C14.5333 11.9284 14.621 11.9712 14.6868 12.0353C15.191 12.6127 15.4541 13.3398 15.4541 14.1738C15.4541 14.2308 15.4468 14.2807 15.4322 14.3234V14.3448C15.3226 14.9222 14.9718 15.136 14.6429 15.136Z" fill="black"/>
<path fill-rule="evenodd" clip-rule="evenodd" d="M85.5009 11.8856C83.3304 11.8856 81.5326 10.1963 81.4669 8.03646C81.423 5.9408 83.0015 4.25144 85.1282 4.01622C85.5666 3.97345 85.764 4.20868 85.6543 4.61498C85.6324 4.67913 85.6105 4.74328 85.6105 4.78605C85.5666 5.08543 85.6543 5.21374 85.9613 5.25651C86.4655 5.32066 86.597 5.49173 86.3997 5.96219C86.3851 5.97644 86.3778 5.9907 86.3778 6.00496C86.2243 6.36849 86.1586 6.71063 86.4655 7.01001C86.7724 7.28801 87.1232 7.24524 87.474 7.09555C87.5179 7.07417 87.5836 7.0314 87.6275 7.01001C88.0879 6.83894 88.351 7.05279 88.2633 7.50186C88.2194 7.63016 88.1975 7.75846 88.351 7.844C88.5044 7.92954 88.6579 7.90815 88.7456 7.73708C88.8771 7.52324 89.0525 7.39494 89.3156 7.50186C89.5568 7.60878 89.5568 7.82262 89.5568 8.03646C89.491 10.1749 87.6932 11.8856 85.5009 11.8856ZM84.7554 4.91436C83.4839 5.1282 82.015 6.47541 82.3219 8.39999C82.5631 10.068 84.0977 11.2441 85.764 11.0944C87.189 10.9661 88.5702 9.78997 88.5483 8.69937C88.0221 8.69937 87.6275 8.44276 87.4302 7.95092C86.8163 8.05784 86.2682 7.97231 85.8516 7.52324C85.4132 7.09555 85.3912 6.53956 85.4789 5.98357C85.0185 5.74834 84.7993 5.4062 84.7554 4.91436Z" fill="black"/>
<path d="M87.3864 4.61502C87.3644 4.31564 87.6056 4.08041 87.8906 4.08041C88.1756 4.05903 88.4387 4.31564 88.4387 4.61502C88.4387 4.87164 88.1756 5.12825 87.9125 5.12825C87.6275 5.12825 87.3864 4.89302 87.3864 4.61502Z" fill="black"/>
<path d="M89.3156 6.34711C89.3156 6.51818 89.1621 6.68925 88.9648 6.68925C88.7894 6.68925 88.6359 6.53956 88.6359 6.36849C88.614 6.19742 88.7455 6.04773 88.9209 6.04773C89.1183 6.02635 89.2937 6.15465 89.3156 6.34711Z" fill="black"/>
<path d="M87.7371 6.00498C87.759 6.17605 87.6275 6.32574 87.4521 6.34712C87.2548 6.3685 87.0794 6.2402 87.0794 6.04774C87.0794 5.87667 87.2109 5.72698 87.3644 5.7056C87.5617 5.68421 87.7371 5.83391 87.7371 6.00498Z" fill="black"/>
<path d="M83.0673 7.54464C83.0892 7.15972 83.44 6.81758 83.8127 6.83896C84.2293 6.83896 84.602 7.2025 84.58 7.58741C84.5581 7.99371 84.1854 8.33585 83.7689 8.31447C83.3743 8.2717 83.0673 7.95094 83.0673 7.54464Z" fill="black"/>
<path d="M85.0185 9.42648C85.0405 9.70447 84.7993 9.96108 84.4924 9.98247C84.1854 10.0038 83.9223 9.76862 83.9004 9.46924C83.8785 9.16986 84.1416 8.87048 84.4485 8.87048C84.7335 8.87048 85.0185 9.1271 85.0185 9.42648Z" fill="black"/>
<path d="M86.5313 10.2177C86.2682 10.1963 86.0051 9.96107 86.0051 9.68307C85.9832 9.40507 86.2682 9.12708 86.5532 9.12708C86.8382 9.14846 87.0794 9.38369 87.1013 9.66168C87.1013 9.93968 86.8383 10.2177 86.5313 10.2177Z" fill="black"/>
<path d="M85.3913 7.52327C85.6324 7.52327 85.8516 7.7585 85.8297 7.99373C85.8078 8.25034 85.5886 8.4428 85.3255 8.42142C85.0843 8.40003 84.887 8.18619 84.9089 7.95096C84.9089 7.71573 85.172 7.50188 85.3913 7.52327Z" fill="black"/>
<path d="M85.0405 6.26162C85.0405 6.45408 84.8651 6.60376 84.6897 6.58238C84.5143 6.561 84.3827 6.41131 84.3827 6.24024C84.3827 6.04778 84.5581 5.91948 84.7555 5.94086C84.9309 5.96224 85.0624 6.11193 85.0405 6.26162Z" fill="black"/>
<path d="M8.24118 17.4883V16.9537C8.24118 15.0719 8.26311 13.1473 8.26311 11.2227C8.26311 10.7737 8.28503 10.3888 8.32888 10.0252C8.41658 9.234 8.78928 8.63524 9.42507 8.18617C9.68816 8.0151 9.94394 7.92957 10.1924 7.92957C10.4555 7.92957 10.7186 8.0151 10.9817 8.18617C11.5078 8.54971 11.8148 8.9774 11.9682 9.53339C11.9682 9.5619 11.9682 9.58328 11.9682 9.59754C11.9828 9.68307 12.0048 9.76148 12.034 9.83277C12.0559 9.93969 12.0779 10.0252 12.0779 10.0894C12.0779 12.3561 12.0779 14.6228 12.0559 16.8468V17.4883H8.24118Z" fill="black"/>
<path d="M10.0827 2.00613C9.62235 2.00613 9.27157 1.66398 9.27157 1.21492C9.27157 0.787233 9.62235 0.423706 10.0827 0.423706C10.5212 0.423706 10.8939 0.787233 10.8939 1.21492C10.8939 1.66398 10.5212 2.00613 10.0827 2.00613Z" fill="black"/>
<path fill-rule="evenodd" clip-rule="evenodd" d="M10.9817 1.21488C10.9817 1.45011 10.894 1.66395 10.7624 1.81364C10.587 2.0061 10.3459 2.11302 10.0828 2.11302C9.75392 2.11302 9.49083 1.96333 9.31544 1.72811C9.22775 1.57842 9.16197 1.40734 9.16197 1.21488C9.16197 0.723045 9.57853 0.338135 10.0828 0.338135C10.587 0.338135 10.9817 0.723045 10.9817 1.21488ZM10.587 1.72811C10.7186 1.5998 10.8063 1.42872 10.8063 1.21488C10.8063 0.829965 10.4774 0.530591 10.0828 0.530591C9.68815 0.530591 9.35929 0.829965 9.35929 1.21488C9.35929 1.42872 9.44698 1.5998 9.57853 1.72811C9.71007 1.83503 9.88547 1.92056 10.0828 1.92056C10.2801 1.92056 10.4555 1.83503 10.587 1.72811Z" fill="black"/>
<path fill-rule="evenodd" clip-rule="evenodd" d="M19.0935 19.3915C19.4004 20.3966 18.7427 21.4658 17.6904 21.6583C17.493 21.701 17.2738 21.701 17.0765 21.7224C16.8573 21.7224 16.6599 21.7224 16.3968 21.7224C16.3968 21.8721 16.3968 21.979 16.3968 22.1073C16.3968 22.6633 16.4188 23.1979 16.3749 23.7539C16.3311 24.8017 15.3226 25.5716 14.2922 25.4219C13.3494 25.2722 12.6917 24.5451 12.6698 23.5615C12.6479 23.0696 12.6698 22.5992 12.6698 22.1073C12.6698 22.0075 12.6698 21.8935 12.6698 21.7652C10.9817 21.7652 9.31544 21.7652 7.6273 21.7652C7.6273 21.8935 7.60538 22.0004 7.60538 22.0859C7.60538 22.5992 7.6273 23.091 7.60538 23.6042C7.58345 24.5237 6.96959 25.208 6.07071 25.4005C5.01836 25.6143 3.9441 24.8231 3.90025 23.7753C3.8564 23.2407 3.87832 22.7275 3.87832 22.1929C3.87832 22.0646 3.87832 21.9576 3.87832 21.7866C3.59331 21.7866 3.33023 21.8079 3.06714 21.7866C2.25596 21.7652 1.57632 21.252 1.33515 20.5249C0.984371 19.3915 1.79556 18.2368 3.00137 18.1726C3.28638 18.1512 3.54946 18.1726 3.87832 18.1726C3.87832 18.0015 3.87832 17.8732 3.87832 17.7449C3.89294 15.3642 3.90025 12.9905 3.90025 10.624C3.90025 9.57614 4.05371 8.57108 4.44834 7.63018C5.19376 5.76974 6.48726 4.44392 8.48233 3.88793C8.7308 3.8309 8.97927 3.78101 9.22774 3.73824C9.22774 3.68122 9.22774 3.63132 9.22774 3.58855C9.24236 3.58855 9.25698 3.58855 9.27159 3.58855C9.27159 2.98979 9.27159 2.39816 9.27159 1.81366C9.38121 1.98473 9.53468 2.11304 9.732 2.19857C10.1705 2.39103 10.4116 2.66903 10.5432 3.2464C10.6089 3.46024 10.6966 3.67409 10.8063 3.88793C11.2228 4.57223 11.7709 4.72192 12.1436 4.72192C12.319 4.72192 12.4944 4.68628 12.6698 4.615C12.6917 4.91438 12.6698 5.23514 12.6259 5.59867C12.6113 5.72698 12.604 5.85529 12.604 5.98359C12.5894 6.09764 12.5748 6.21169 12.5602 6.32574C12.5163 6.5182 12.4944 6.71065 12.4944 6.90311C12.4286 8.03648 13.1302 8.50693 13.7441 8.59247C13.7733 8.59247 13.7952 8.59247 13.8098 8.59247C13.8098 8.64949 13.8025 8.70652 13.7879 8.76355C13.7221 9.25538 13.6344 9.81137 13.7441 10.4101C13.9633 11.5649 14.928 12.3989 16.1118 12.3989C16.2142 12.3989 16.3238 12.3917 16.4407 12.3775C16.4407 14.1595 16.4334 15.9415 16.4188 17.7236C16.4188 17.8305 16.4188 17.916 16.4407 18.0871C16.7915 18.0871 17.0984 18.0657 17.4053 18.0871C18.2165 18.1299 18.8742 18.6217 19.0935 19.3915ZM12.7136 10.0894C12.7136 9.89691 12.6259 9.68307 12.5821 9.49061C12.4286 8.72078 11.9902 8.12202 11.3324 7.67295C10.587 7.18111 9.81969 7.18111 9.07428 7.67295C8.2631 8.22894 7.80269 8.99877 7.715 9.96107C7.64923 10.3674 7.64923 10.7951 7.6273 11.2227C7.6273 13.4324 7.6273 15.6422 7.6273 17.8519C7.60538 17.9374 7.6273 18.0229 7.64923 18.0871C9.33737 18.0871 10.9817 18.0871 12.6698 18.0871C12.6698 17.9802 12.6917 17.916 12.6917 17.8305C12.6917 15.2501 12.699 12.6697 12.7136 10.0894Z" fill="white"/>
<path fill-rule="evenodd" clip-rule="evenodd" d="M15.0376 6.53958C14.8402 6.79619 14.6649 7.07419 14.4456 7.28803C14.2921 7.41634 14.051 7.56602 13.8756 7.54464C13.5906 7.50187 13.5687 7.2025 13.5687 6.96727C13.5906 6.66789 13.6564 6.36851 13.6783 6.06913C13.7221 5.5559 13.8098 5.04268 13.766 4.52946C13.744 4.20869 13.5906 3.86654 13.3933 3.58855C13.1083 3.16086 12.9548 3.18225 12.5163 3.50301C12.1655 3.73824 11.9682 3.69547 11.749 3.35332C11.6832 3.22502 11.6394 3.1181 11.6174 2.98979C11.4201 2.21996 11.0474 1.59981 10.1705 1.21489C10.4555 1.00105 10.6309 0.829978 10.8501 0.701672C12.2752 -0.0467772 13.7879 -0.196468 15.3226 0.252601C16.2872 0.530597 17.0107 1.17213 17.5369 2.00611C18.7427 3.97347 19.0277 6.06912 18.4577 8.2717C18.2823 8.91323 18.0192 9.53338 17.7561 10.1535C17.5807 10.5812 17.2738 10.9234 16.8572 11.1372C15.9584 11.6077 14.9937 11.2014 14.8183 10.2177C14.7525 9.78999 14.8183 9.31954 14.8841 8.89185C14.9499 8.35725 15.1033 7.82263 15.191 7.30941C15.2349 7.0528 15.213 6.79619 15.213 6.56096C15.1545 6.54671 15.096 6.53958 15.0376 6.53958ZM15.7391 10.7737C15.5857 10.1749 15.4541 9.66169 15.3006 9.1057C14.9499 9.83276 15.0595 10.2818 15.7391 10.7737Z" fill="black"/>
<path fill-rule="evenodd" clip-rule="evenodd" d="M14.4456 12.2278C14.9279 12.7838 15.1252 13.4467 15.1472 14.1951C15.1472 14.2237 15.1399 14.2522 15.1253 14.2807C15.0595 14.6228 14.8841 14.8367 14.6429 14.8367C14.4237 14.8367 14.2045 14.6656 14.1168 14.3662C14.0729 14.2593 14.0291 14.1096 14.0291 13.9813C14.1168 13.4039 14.2045 12.8265 14.2921 12.2278C14.3506 12.2278 14.4018 12.2278 14.4456 12.2278ZM14.336 14.0668C14.2922 14.0811 14.2556 14.0882 14.2264 14.0882C14.2702 14.2165 14.3141 14.3377 14.3579 14.4518C14.3872 14.4375 14.4164 14.4232 14.4456 14.409C14.4018 14.2949 14.3652 14.1809 14.336 14.0668Z" fill="black"/>
<path d="M10.7624 1.72814V3.93071H9.27157V1.62122L9.5785 1.72814C9.71004 1.83506 9.88543 1.92059 10.0827 1.92059C10.2801 1.92059 10.4554 1.83506 10.587 1.72814H10.7624Z" fill="black"/>
<path fill-rule="evenodd" clip-rule="evenodd" d="M10.0828 1.79227C9.75389 1.79227 9.4908 1.53565 9.4908 1.21489C9.4908 0.894121 9.75389 0.637512 10.0828 0.637512C10.4116 0.637512 10.6747 0.894121 10.6747 1.21489C10.6747 1.53565 10.4116 1.79227 10.0828 1.79227ZM10.0828 0.82997C9.86351 0.82997 9.68812 1.00104 9.68812 1.21489C9.68812 1.42873 9.86351 1.59981 10.0828 1.59981C10.302 1.59981 10.4774 1.42873 10.4774 1.21489C10.4774 1.00104 10.302 0.82997 10.0828 0.82997Z" fill="black"/>
<path d="M52.6302 32.0844C52.3685 32.5043 52.0912 32.8286 51.7982 33.0571C51.5052 33.2836 51.2357 33.3969 50.9896 33.3969C50.8002 33.3969 50.6498 33.3246 50.5384 33.1801C50.4291 33.0336 50.3744 32.8393 50.3744 32.5971C50.3744 32.103 50.5746 31.5961 50.975 31.0766C51.3773 30.5571 51.8109 30.2973 52.2757 30.2973C52.4789 30.2973 52.6673 30.3842 52.8412 30.558L53.2513 28.642C53.2806 28.5112 53.3343 28.4233 53.4125 28.3784C53.4925 28.3334 53.555 28.311 53.6 28.311C53.7367 28.311 53.805 28.4321 53.805 28.6743C53.805 28.7172 53.7601 28.8774 53.6703 29.1547C53.5277 29.5844 53.392 30.1127 53.263 30.7397C53.1361 31.3647 53.0726 31.8666 53.0726 32.2455C53.0726 32.6362 53.1576 32.8315 53.3275 32.8315C53.4369 32.8315 53.5502 32.7953 53.6673 32.7231C53.7162 32.6879 53.7621 32.6703 53.805 32.6703C53.8675 32.6703 53.8988 32.7114 53.8988 32.7934C53.8988 32.893 53.8109 33.0082 53.6351 33.1391C53.4613 33.27 53.2826 33.3354 53.099 33.3354C52.7767 33.3354 52.6156 33.0248 52.6156 32.4037C52.6156 32.2983 52.6205 32.1918 52.6302 32.0844ZM52.2464 30.7133C51.93 30.7133 51.6166 30.9282 51.306 31.3578C50.9955 31.7856 50.8402 32.1811 50.8402 32.5444C50.8402 32.7885 50.9212 32.9106 51.0834 32.9106C51.2357 32.9106 51.4203 32.8305 51.6371 32.6703C51.8558 32.5102 52.0804 32.2553 52.3109 31.9057C52.5414 31.5541 52.6566 31.2905 52.6566 31.1147C52.6566 31.0287 52.6166 30.9409 52.5365 30.851C52.4584 30.7592 52.3617 30.7133 52.2464 30.7133ZM55.3519 33.4438C55.0843 33.4438 54.8636 33.3422 54.6898 33.1391C54.516 32.936 54.4291 32.685 54.4291 32.3862C54.4291 31.8823 54.598 31.3862 54.9359 30.8979C55.2757 30.4077 55.682 30.1625 56.1546 30.1625C56.4671 30.1625 56.7201 30.2827 56.9134 30.5229C57.1087 30.7631 57.2064 31.0493 57.2064 31.3813C57.2064 31.8891 57.0052 32.3598 56.6029 32.7934C56.2025 33.227 55.7855 33.4438 55.3519 33.4438ZM54.9447 32.31C54.9447 32.5073 54.9857 32.6684 55.0677 32.7934C55.1517 32.9184 55.2621 32.9809 55.3988 32.9809C55.6898 32.9809 55.9818 32.8217 56.2748 32.5034C56.5677 32.183 56.7142 31.8276 56.7142 31.437C56.7142 31.1967 56.6576 31.0024 56.5443 30.8539C56.433 30.7036 56.2826 30.6284 56.0931 30.6284C55.7787 30.6284 55.5082 30.8217 55.2816 31.2084C55.057 31.5932 54.9447 31.9604 54.9447 32.31ZM59.3627 32.6264C59.3627 32.4995 59.2064 32.3549 58.8939 32.1928C58.4974 31.9897 58.2289 31.8276 58.0882 31.7065C57.9496 31.5834 57.8802 31.4467 57.8802 31.2963C57.8802 30.9077 58.0746 30.5854 58.4632 30.3295C58.8539 30.0737 59.1722 29.9457 59.4183 29.9457C59.5765 29.9457 59.6908 29.9731 59.7611 30.0278C59.8334 30.0825 59.8695 30.1772 59.8695 30.312C59.8695 30.3725 59.8431 30.4243 59.7904 30.4672C59.7396 30.5102 59.6996 30.5317 59.6703 30.5317C59.6488 30.5317 59.6068 30.517 59.5443 30.4877C59.4818 30.4604 59.4408 30.4467 59.4212 30.4467C59.3236 30.4467 59.1254 30.518 58.8265 30.6606C58.5277 30.8032 58.3783 30.9643 58.3783 31.144C58.3783 31.2534 58.431 31.353 58.5365 31.4428C58.642 31.5307 58.8314 31.6391 59.1048 31.768C59.3255 31.8735 59.5013 31.9868 59.6322 32.1078C59.765 32.227 59.8314 32.3676 59.8314 32.5297C59.8314 32.8286 59.6254 33.0629 59.2132 33.2328C58.8011 33.4008 58.4076 33.4848 58.0326 33.4848C57.7162 33.4848 57.558 33.3774 57.558 33.1625C57.558 33.0883 57.5931 33.0336 57.6634 32.9985C57.7357 32.9633 57.808 32.9457 57.8802 32.9457C57.9095 32.9457 57.9652 32.9555 58.0472 32.975C58.1273 32.9946 58.18 33.0043 58.2054 33.0043C58.4222 33.0043 58.6546 32.9682 58.9027 32.8959C59.1507 32.8237 59.3041 32.7338 59.3627 32.6264ZM62.9457 32.3041C62.9457 32.5034 62.7689 32.7436 62.4154 33.0248C62.0638 33.3061 61.7005 33.4467 61.3255 33.4467C61.0111 33.4467 60.7679 33.3539 60.5961 33.1684C60.4261 32.9828 60.3412 32.7241 60.3412 32.392C60.3412 31.8334 60.5296 31.3022 60.9066 30.7983C61.2836 30.2944 61.6957 30.0424 62.1429 30.0424C62.2894 30.0424 62.4086 30.0903 62.5004 30.186C62.5941 30.2817 62.641 30.3969 62.641 30.5317C62.641 30.8325 62.4935 31.1205 62.1986 31.3959C61.9037 31.6713 61.5091 31.9418 61.015 32.2075C60.9134 32.2602 60.8627 32.3286 60.8627 32.4125C60.8627 32.5746 60.9095 32.7045 61.0033 32.8022C61.097 32.8998 61.2357 32.9487 61.4193 32.9487C61.8392 32.9487 62.2679 32.7162 62.7054 32.2514C62.7699 32.187 62.8187 32.1547 62.8519 32.1547C62.9144 32.1547 62.9457 32.2045 62.9457 32.3041ZM60.9095 31.8471C61.7377 31.3549 62.1517 30.9594 62.1517 30.6606C62.1517 30.5434 62.099 30.4848 61.9935 30.4848C61.8138 30.4848 61.6107 30.6166 61.3841 30.8803C61.1595 31.144 61.0013 31.4662 60.9095 31.8471ZM66.8187 33.4438C66.5511 33.4438 66.3304 33.3422 66.1566 33.1391C65.9828 32.936 65.8959 32.685 65.8959 32.3862C65.8959 31.8823 66.0648 31.3862 66.4027 30.8979C66.7425 30.4077 67.1488 30.1625 67.6214 30.1625C67.9339 30.1625 68.1869 30.2827 68.3802 30.5229C68.5755 30.7631 68.6732 31.0493 68.6732 31.3813C68.6732 31.8891 68.472 32.3598 68.0697 32.7934C67.6693 33.227 67.2523 33.4438 66.8187 33.4438ZM66.4115 32.31C66.4115 32.5073 66.4525 32.6684 66.5345 32.7934C66.6185 32.9184 66.7289 32.9809 66.8656 32.9809C67.1566 32.9809 67.4486 32.8217 67.7416 32.5034C68.0345 32.183 68.181 31.8276 68.181 31.437C68.181 31.1967 68.1244 31.0024 68.0111 30.8539C67.8998 30.7036 67.7494 30.6284 67.5599 30.6284C67.2455 30.6284 66.975 30.8217 66.7484 31.2084C66.5238 31.5932 66.4115 31.9604 66.4115 32.31ZM69.9388 33.4321C69.9252 33.4809 69.888 33.5219 69.8275 33.5551C69.767 33.5883 69.7064 33.6049 69.6459 33.6049C69.4466 33.6049 69.347 33.4594 69.347 33.1684C69.347 33.0297 69.3929 32.6371 69.4847 31.9907C69.5414 31.5942 69.5697 31.2934 69.5697 31.0883C69.5697 31.0532 69.5287 31.0073 69.4466 30.9506C69.3627 30.8959 69.3207 30.8422 69.3207 30.7895C69.3207 30.7055 69.3841 30.6147 69.5111 30.517C69.6087 30.4409 69.6683 30.3559 69.6898 30.2621C69.7132 30.1684 69.7396 30.0385 69.7689 29.8725C69.8685 29.267 70.0238 28.8305 70.2347 28.5629C70.4476 28.2953 70.7181 28.1616 71.0462 28.1616C71.2201 28.1616 71.3675 28.2211 71.4886 28.3403C71.6097 28.4575 71.6703 28.6039 71.6703 28.7797C71.6703 28.9223 71.6361 29.0844 71.5677 29.2661C71.5013 29.4457 71.4252 29.5356 71.3392 29.5356C71.2748 29.5356 71.2425 29.5034 71.2425 29.4389L71.263 29.1547C71.263 28.7778 71.1576 28.5893 70.9466 28.5893C70.7181 28.5893 70.5287 28.8139 70.3783 29.2631C70.2279 29.7104 70.1527 30.0746 70.1527 30.3559C70.1527 30.4457 70.2113 30.4907 70.3285 30.4907C70.8382 30.4907 71.138 30.4887 71.2279 30.4848C71.3197 30.4809 71.3656 30.519 71.3656 30.5991C71.3656 30.6791 71.3158 30.7407 71.2162 30.7836C71.1185 30.8246 70.9037 30.8618 70.5716 30.895C70.2884 30.9243 70.1283 30.9487 70.0912 30.9682C69.9603 31.6948 69.8949 32.3422 69.8949 32.9106C69.8949 33.0805 69.9027 33.2065 69.9183 33.2885C69.932 33.3647 69.9388 33.4125 69.9388 33.4321ZM74.4769 32.4184C75.2035 31.0766 75.8021 30.4057 76.2728 30.4057C76.3978 30.4057 76.4994 30.477 76.5775 30.6196C76.6556 30.7621 76.7191 31.0786 76.7679 31.5688C76.8168 32.0903 76.9271 32.4672 77.099 32.6996C77.1869 32.8188 77.2308 32.9067 77.2308 32.9633C77.2308 33.0141 77.2015 33.061 77.1429 33.1039C77.0843 33.1469 77.0218 33.1684 76.9554 33.1684C76.8031 33.1684 76.6683 33.0834 76.5511 32.9135C76.4339 32.7416 76.3587 32.4409 76.3255 32.0112C76.2923 31.6049 76.2572 31.3393 76.2201 31.2143C76.183 31.0893 76.1214 31.0268 76.0355 31.0268C75.8304 31.0268 75.4173 31.5629 74.7962 32.6352C74.6107 32.9555 74.474 33.1655 74.3861 33.2651C74.2982 33.3627 74.2181 33.4116 74.1459 33.4116C74.0599 33.4116 73.9877 33.3862 73.9291 33.3354C73.8705 33.2846 73.8412 33.2221 73.8412 33.1479C73.8412 33.0932 73.8568 32.9877 73.888 32.8315C74.1283 31.5912 74.3177 30.3647 74.4564 29.1518C74.4877 28.8686 74.5375 28.6801 74.6058 28.5864C74.6761 28.4926 74.7347 28.4457 74.7816 28.4457C74.8656 28.4457 74.9418 28.4799 75.0101 28.5483C75.0785 28.6166 75.1127 28.7114 75.1127 28.8325C75.1127 29.1918 75.0248 29.685 74.849 30.312C74.763 30.6225 74.6722 31.017 74.5765 31.4955C74.4808 31.9741 74.433 32.27 74.433 32.3832C74.433 32.4067 74.4437 32.4184 74.4652 32.4184H74.4769ZM79.7269 32.2309C79.4535 32.5981 79.183 32.8735 78.9154 33.0571C78.6478 33.2407 78.4027 33.3325 78.18 33.3325C78.0296 33.3325 77.8998 33.269 77.7904 33.142C77.681 33.0151 77.6263 32.852 77.6263 32.6528C77.6263 32.1391 77.8558 31.5864 78.3148 30.9946C78.7738 30.4008 79.2298 30.1039 79.683 30.1039C79.847 30.1039 79.9691 30.1977 80.0492 30.3852C80.0746 30.4477 80.1146 30.4789 80.1693 30.4789C80.3255 30.4789 80.4037 30.5395 80.4037 30.6606C80.4037 30.7211 80.3939 30.8041 80.3744 30.9096C80.2689 31.4858 80.2162 31.892 80.2162 32.1284C80.2162 32.601 80.306 32.8842 80.4857 32.978C80.5716 33.0248 80.6146 33.0825 80.6146 33.1508C80.6146 33.2114 80.5726 33.2719 80.4886 33.3325C80.4046 33.395 80.3236 33.4262 80.2455 33.4262C80.0951 33.4262 79.9711 33.3227 79.8734 33.1157C79.7757 32.9086 79.7269 32.6137 79.7269 32.2309ZM79.5482 30.5815C79.2904 30.5815 78.9906 30.8237 78.6488 31.308C78.307 31.7905 78.1361 32.1909 78.1361 32.5092C78.1361 32.7338 78.2103 32.8461 78.3587 32.8461C78.5736 32.8461 78.8714 32.6293 79.2523 32.1957C79.6332 31.7621 79.8236 31.3637 79.8236 31.0004C79.8236 30.7211 79.7318 30.5815 79.5482 30.5815ZM81.8392 32.9575C81.7435 33.309 81.6537 33.8022 81.5697 34.437L81.4877 34.9907C81.474 35.0688 81.4379 35.1459 81.3793 35.2221C81.3207 35.3002 81.267 35.3393 81.2181 35.3393C81.1576 35.3393 81.0882 35.308 81.0101 35.2455C80.9339 35.185 80.8959 35.1362 80.8959 35.0991C80.8959 34.9916 80.9203 34.8432 80.9691 34.6537C81.3265 33.2104 81.5052 31.9428 81.5052 30.851L81.5023 30.6049C81.4984 30.394 81.5355 30.2407 81.6136 30.145C81.6918 30.0493 81.7816 30.0014 81.8832 30.0014C81.93 30.0014 81.975 30.0385 82.0179 30.1127C82.0609 30.185 82.0824 30.2885 82.0824 30.4233C82.0824 30.6127 82.0629 30.8422 82.0238 31.1118C81.973 31.4516 81.9466 31.6469 81.9447 31.6977C82.2357 31.1899 82.5443 30.7934 82.8705 30.5082C83.1966 30.2231 83.4994 30.0805 83.7787 30.0805C83.9759 30.0805 84.142 30.1547 84.2767 30.3032C84.4134 30.4496 84.4818 30.6323 84.4818 30.851C84.4818 31.4877 84.2377 32.0659 83.7494 32.5854C83.2611 33.1049 82.7855 33.3647 82.3226 33.3647C82.2074 33.3647 82.1156 33.3354 82.0472 33.2768C81.9808 33.2182 81.9115 33.1118 81.8392 32.9575ZM83.6586 30.5991C83.3832 30.5991 83.0423 30.8569 82.6361 31.3725C82.2298 31.8881 82.0267 32.2895 82.0267 32.5766C82.0267 32.6469 82.0668 32.7153 82.1468 32.7817C82.2269 32.8481 82.3285 32.8813 82.4515 32.8813C82.7308 32.8813 83.0521 32.6752 83.4154 32.2631C83.7787 31.8491 83.9603 31.4428 83.9603 31.0444C83.9603 30.9018 83.931 30.7924 83.8724 30.7162C83.8158 30.6381 83.7445 30.5991 83.6586 30.5991ZM85.7181 32.9575C85.6224 33.309 85.5326 33.8022 85.4486 34.437L85.3666 34.9907C85.3529 35.0688 85.3168 35.1459 85.2582 35.2221C85.1996 35.3002 85.1459 35.3393 85.097 35.3393C85.0365 35.3393 84.9671 35.308 84.889 35.2455C84.8129 35.185 84.7748 35.1362 84.7748 35.0991C84.7748 34.9916 84.7992 34.8432 84.848 34.6537C85.2054 33.2104 85.3841 31.9428 85.3841 30.851L85.3812 30.6049C85.3773 30.394 85.4144 30.2407 85.4925 30.145C85.5707 30.0493 85.6605 30.0014 85.7621 30.0014C85.8089 30.0014 85.8539 30.0385 85.8968 30.1127C85.9398 30.185 85.9613 30.2885 85.9613 30.4233C85.9613 30.6127 85.9418 30.8422 85.9027 31.1118C85.8519 31.4516 85.8255 31.6469 85.8236 31.6977C86.1146 31.1899 86.4232 30.7934 86.7494 30.5082C87.0755 30.2231 87.3783 30.0805 87.6576 30.0805C87.8548 30.0805 88.0209 30.1547 88.1556 30.3032C88.2923 30.4496 88.3607 30.6323 88.3607 30.851C88.3607 31.4877 88.1166 32.0659 87.6283 32.5854C87.14 33.1049 86.6644 33.3647 86.2015 33.3647C86.0863 33.3647 85.9945 33.3354 85.9261 33.2768C85.8597 33.2182 85.7904 33.1118 85.7181 32.9575ZM87.5375 30.5991C87.2621 30.5991 86.9212 30.8569 86.515 31.3725C86.1087 31.8881 85.9056 32.2895 85.9056 32.5766C85.9056 32.6469 85.9457 32.7153 86.0257 32.7817C86.1058 32.8481 86.2074 32.8813 86.3304 32.8813C86.6097 32.8813 86.931 32.6752 87.2943 32.2631C87.6576 31.8491 87.8392 31.4428 87.8392 31.0444C87.8392 30.9018 87.8099 30.7924 87.7513 30.7162C87.6947 30.6381 87.6234 30.5991 87.5375 30.5991ZM89.975 29.3745C89.9339 29.3745 89.9027 29.3305 89.8812 29.2426C89.8734 29.2153 89.8627 29.185 89.849 29.1518C89.7962 29.0248 89.7699 28.9145 89.7699 28.8207C89.7699 28.7426 89.8158 28.6635 89.9076 28.5834C90.0013 28.5014 90.1048 28.4604 90.2181 28.4604C90.2748 28.4604 90.3382 28.4828 90.4086 28.5278C90.4789 28.5707 90.514 28.6127 90.514 28.6537C90.514 28.7182 90.4896 28.8276 90.4408 28.9819C90.3939 29.1362 90.3177 29.2407 90.2123 29.2953C90.1087 29.3481 90.0296 29.3745 89.975 29.3745ZM89.5912 32.6469C89.5912 32.7953 89.6117 32.9623 89.6527 33.1479C89.6605 33.183 89.6644 33.2123 89.6644 33.2358C89.6644 33.2709 89.6322 33.3159 89.5677 33.3705C89.5033 33.4272 89.4349 33.4555 89.3627 33.4555C89.1732 33.4555 89.0785 33.2817 89.0785 32.934C89.0785 32.5746 89.1527 32.0063 89.3011 31.2289C89.3519 30.9575 89.3773 30.7905 89.3773 30.728C89.3773 30.6049 89.3998 30.5004 89.4447 30.4145C89.4896 30.3266 89.5531 30.2827 89.6351 30.2827C89.7347 30.2827 89.8129 30.3071 89.8695 30.3559C89.9281 30.4028 89.9574 30.4555 89.9574 30.5141C89.9574 30.5727 89.9437 30.6498 89.9164 30.7455C89.7699 31.2612 89.6791 31.6303 89.6439 31.853C89.6087 32.0756 89.5912 32.3403 89.5912 32.6469ZM92.7611 31.0444C92.6595 31.0444 92.5482 31.1108 92.4271 31.2436C92.308 31.3764 92.1254 31.6743 91.8793 32.1371C91.555 32.7582 91.3451 33.1118 91.2494 33.1977C91.1556 33.2836 91.0775 33.3266 91.015 33.3266C90.7845 33.3266 90.6693 33.2153 90.6693 32.9926C90.6693 32.8989 90.6849 32.7661 90.7162 32.5942C90.8236 32.0043 90.8773 31.3823 90.8773 30.728C90.8773 30.6537 90.9086 30.5717 90.9711 30.4819C91.0355 30.3901 91.0961 30.3442 91.1527 30.3442C91.2543 30.3442 91.3265 30.3754 91.3695 30.4379C91.4125 30.5004 91.4339 30.6264 91.4339 30.8159C91.4339 31.0131 91.3754 31.4194 91.2582 32.0346C91.2191 32.2377 91.1996 32.3666 91.1996 32.4213C91.1996 32.4526 91.2074 32.4682 91.223 32.4682C91.2523 32.4682 91.388 32.2348 91.6302 31.768C91.8744 31.2934 92.0882 30.9594 92.2718 30.7661C92.4554 30.5727 92.6576 30.476 92.8783 30.476C93.0541 30.476 93.1966 30.5561 93.306 30.7162C93.4173 30.8764 93.4984 31.1684 93.5492 31.5922C93.6039 32.0746 93.6527 32.3754 93.6957 32.4946C93.7406 32.6118 93.8109 32.6703 93.9066 32.6703C93.9671 32.6703 94.0433 32.6489 94.1351 32.6059C94.1507 32.5981 94.1625 32.5942 94.1703 32.5942C94.2543 32.5942 94.2962 32.643 94.2962 32.7407C94.2962 32.8266 94.2386 32.9184 94.1234 33.0161C94.0082 33.1118 93.8695 33.1596 93.7074 33.1596C93.5414 33.1596 93.4125 33.0942 93.3207 32.9633C93.2308 32.8305 93.1595 32.478 93.1068 31.9057C93.0521 31.3315 92.9369 31.0444 92.7611 31.0444ZM97.2523 32.3041C97.2523 32.5034 97.0755 32.7436 96.722 33.0248C96.3705 33.3061 96.0072 33.4467 95.6322 33.4467C95.3177 33.4467 95.0746 33.3539 94.9027 33.1684C94.7328 32.9828 94.6478 32.7241 94.6478 32.392C94.6478 31.8334 94.8363 31.3022 95.2132 30.7983C95.5902 30.2944 96.0023 30.0424 96.4496 30.0424C96.5961 30.0424 96.7152 30.0903 96.807 30.186C96.9007 30.2817 96.9476 30.3969 96.9476 30.5317C96.9476 30.8325 96.8002 31.1205 96.5052 31.3959C96.2103 31.6713 95.8158 31.9418 95.3216 32.2075C95.2201 32.2602 95.1693 32.3286 95.1693 32.4125C95.1693 32.5746 95.2162 32.7045 95.3099 32.8022C95.4037 32.8998 95.5423 32.9487 95.7259 32.9487C96.1459 32.9487 96.5746 32.7162 97.0121 32.2514C97.0765 32.187 97.1254 32.1547 97.1586 32.1547C97.2211 32.1547 97.2523 32.2045 97.2523 32.3041ZM95.2162 31.8471C96.0443 31.3549 96.4584 30.9594 96.4584 30.6606C96.4584 30.5434 96.4056 30.4848 96.3002 30.4848C96.1205 30.4848 95.9173 30.6166 95.6908 30.8803C95.4662 31.144 95.308 31.4662 95.2162 31.8471ZM99.3412 32.6264C99.3412 32.4995 99.1849 32.3549 98.8724 32.1928C98.4759 31.9897 98.2074 31.8276 98.0668 31.7065C97.9281 31.5834 97.8587 31.4467 97.8587 31.2963C97.8587 30.9077 98.0531 30.5854 98.4418 30.3295C98.8324 30.0737 99.1507 29.9457 99.3968 29.9457C99.555 29.9457 99.6693 29.9731 99.7396 30.0278C99.8119 30.0825 99.848 30.1772 99.848 30.312C99.848 30.3725 99.8216 30.4243 99.7689 30.4672C99.7181 30.5102 99.6781 30.5317 99.6488 30.5317C99.6273 30.5317 99.5853 30.517 99.5228 30.4877C99.4603 30.4604 99.4193 30.4467 99.3998 30.4467C99.3021 30.4467 99.1039 30.518 98.805 30.6606C98.5062 30.8032 98.3568 30.9643 98.3568 31.144C98.3568 31.2534 98.4095 31.353 98.515 31.4428C98.6205 31.5307 98.8099 31.6391 99.0834 31.768C99.3041 31.8735 99.4798 31.9868 99.6107 32.1078C99.7435 32.227 99.8099 32.3676 99.8099 32.5297C99.8099 32.8286 99.6039 33.0629 99.1918 33.2328C98.7796 33.4008 98.3861 33.4848 98.0111 33.4848C97.6947 33.4848 97.5365 33.3774 97.5365 33.1625C97.5365 33.0883 97.5716 33.0336 97.642 32.9985C97.7142 32.9633 97.7865 32.9457 97.8587 32.9457C97.888 32.9457 97.9437 32.9555 98.0257 32.975C98.1058 32.9946 98.1586 33.0043 98.1839 33.0043C98.4007 33.0043 98.6332 32.9682 98.8812 32.8959C99.1293 32.8237 99.2826 32.7338 99.3412 32.6264ZM101.89 32.6264C101.89 32.4995 101.734 32.3549 101.421 32.1928C101.025 31.9897 100.756 31.8276 100.616 31.7065C100.477 31.5834 100.408 31.4467 100.408 31.2963C100.408 30.9077 100.602 30.5854 100.991 30.3295C101.381 30.0737 101.7 29.9457 101.946 29.9457C102.104 29.9457 102.218 29.9731 102.288 30.0278C102.361 30.0825 102.397 30.1772 102.397 30.312C102.397 30.3725 102.37 30.4243 102.318 30.4672C102.267 30.5102 102.227 30.5317 102.198 30.5317C102.176 30.5317 102.134 30.517 102.072 30.4877C102.009 30.4604 101.968 30.4467 101.949 30.4467C101.851 30.4467 101.653 30.518 101.354 30.6606C101.055 30.8032 100.906 30.9643 100.906 31.144C100.906 31.2534 100.958 31.353 101.064 31.4428C101.169 31.5307 101.359 31.6391 101.632 31.768C101.853 31.8735 102.029 31.9868 102.16 32.1078C102.292 32.227 102.359 32.3676 102.359 32.5297C102.359 32.8286 102.153 33.0629 101.741 33.2328C101.328 33.4008 100.935 33.4848 100.56 33.4848C100.244 33.4848 100.085 33.3774 100.085 33.1625C100.085 33.0883 100.12 33.0336 100.191 32.9985C100.263 32.9633 100.335 32.9457 100.408 32.9457C100.437 32.9457 100.493 32.9555 100.575 32.975C100.655 32.9946 100.707 33.0043 100.733 33.0043C100.95 33.0043 101.182 32.9682 101.43 32.8959C101.678 32.8237 101.831 32.7338 101.89 32.6264Z" fill="white"/>
</svg>
