<svg width="33" height="33" viewBox="0 0 33 33" fill="none" xmlns="http://www.w3.org/2000/svg">
<path d="M8.50033 24.5H5.83366C5.12641 24.5 4.44814 24.219 3.94804 23.719C3.44794 23.2189 3.16699 22.5406 3.16699 21.8333V15.1667C3.16699 14.4594 3.44794 13.7811 3.94804 13.281C4.44814 12.781 5.12641 12.5 5.83366 12.5H27.167C27.8742 12.5 28.5525 12.781 29.0526 13.281C29.5527 13.7811 29.8337 14.4594 29.8337 15.1667V21.8333C29.8337 22.5406 29.5527 23.2189 29.0526 23.719C28.5525 24.219 27.8742 24.5 27.167 24.5H24.5003" stroke="white" stroke-width="4" stroke-linecap="round" stroke-linejoin="round"/>
<path d="M24.5 19.1665H8.5V29.8332H24.5V19.1665Z" stroke="white" stroke-width="2" stroke-linecap="round" stroke-linejoin="round"/>
<path d="M8.5 12.4998V3.1665H24.5V12.4998" stroke="white" stroke-width="2" stroke-linecap="round" stroke-linejoin="round"/>
</svg>
