<svg width="33" height="32" viewBox="0 0 33 32" fill="none" xmlns="http://www.w3.org/2000/svg">
<g clip-path="url(#clip0_372_5045)">
<path d="M31 4.00001C29.7232 4.90065 28.3095 5.58949 26.8134 6.04001C26.0103 5.1167 24.9431 4.46227 23.7561 4.16525C22.569 3.86823 21.3193 3.94294 20.1761 4.37929C19.0329 4.81563 18.0513 5.59255 17.364 6.60497C16.6767 7.61739 16.3169 8.81646 16.3334 10.04V11.3733C13.9902 11.4341 11.6684 10.9144 9.5747 9.86061C7.48101 8.80679 5.68044 7.25153 4.33335 5.33335C4.33335 5.33335 -0.999979 17.3333 11 22.6667C8.25406 24.5306 4.9829 25.4653 1.66669 25.3333C13.6667 32 28.3334 25.3333 28.3334 10C28.3321 9.62862 28.2964 9.25814 28.2267 8.89335C29.5875 7.55134 30.5478 5.85696 31 4.00001V4.00001Z" stroke="white" stroke-width="2" stroke-linecap="round" stroke-linejoin="round"/>
</g>
<defs>
<clipPath id="clip0_372_5045">
<rect width="32" height="32" fill="white" transform="translate(0.333374)"/>
</clipPath>
</defs>
</svg>
