<svg width="33" height="32" viewBox="0 0 33 32" fill="none" xmlns="http://www.w3.org/2000/svg">
<path d="M27.8738 4.65C24.881 1.65 20.8953 0 16.6595 0C7.91669 0 0.802401 7.11429 0.802401 15.8571C0.802401 18.65 1.53097 21.3786 2.91669 23.7857L0.666687 32L9.07383 29.7929C11.3881 31.0571 13.9953 31.7214 16.6524 31.7214H16.6595C25.3953 31.7214 32.6667 24.6071 32.6667 15.8643C32.6667 11.6286 30.8667 7.65 27.8738 4.65ZM16.6595 29.05C14.2881 29.05 11.9667 28.4143 9.94526 27.2143L9.46669 26.9286L4.48097 28.2357L5.80954 23.3714L5.49526 22.8714C4.17383 20.7714 3.48097 18.35 3.48097 15.8571C3.48097 8.59286 9.39526 2.67857 16.6667 2.67857C20.1881 2.67857 23.4953 4.05 25.981 6.54286C28.4667 9.03572 29.9953 12.3429 29.9881 15.8643C29.9881 23.1357 23.9238 29.05 16.6595 29.05ZM23.8881 19.1786C23.4953 18.9786 21.5453 18.0214 21.181 17.8929C20.8167 17.7571 20.5524 17.6929 20.2881 18.0929C20.0238 18.4929 19.2667 19.3786 19.031 19.65C18.8024 19.9143 18.5667 19.95 18.1738 19.75C15.8453 18.5857 14.3167 17.6714 12.781 15.0357C12.3738 14.3357 13.1881 14.3857 13.9453 12.8714C14.0738 12.6071 14.0095 12.3786 13.9095 12.1786C13.8095 11.9786 13.0167 10.0286 12.6881 9.23571C12.3667 8.46429 12.0381 8.57143 11.7953 8.55714C11.5667 8.54286 11.3024 8.54286 11.0381 8.54286C10.7738 8.54286 10.3453 8.64286 9.98097 9.03572C9.61669 9.43571 8.59526 10.3929 8.59526 12.3429C8.59526 14.2929 10.0167 16.1786 10.2095 16.4429C10.4095 16.7071 13.0024 20.7071 16.981 22.4286C19.4953 23.5143 20.481 23.6071 21.7381 23.4214C22.5024 23.3071 24.081 22.4643 24.4095 21.5357C24.7381 20.6071 24.7381 19.8143 24.6381 19.65C24.5453 19.4714 24.281 19.3714 23.8881 19.1786Z" fill="white"/>
</svg>
